<?xml version="1.0" encoding="utf-8"?>
<!-- Generator: Adobe Illustrator 23.0.1, SVG Export Plug-In . SVG Version: 6.00 Build 0)  -->
<svg version="1.1" xmlns="http://www.w3.org/2000/svg" xmlns:xlink="http://www.w3.org/1999/xlink" x="0px" y="0px"
	 viewBox="0 0 90 60" style="enable-background:new 0 0 90 60;" xml:space="preserve">
<style type="text/css">
	.st0{fill:none;stroke:#000000;stroke-width:7;stroke-miterlimit:10;}
	.st1{fill:none;stroke:#000000;stroke-width:7;stroke-linecap:round;stroke-miterlimit:10;}
</style>
<g id="Layer_4">
	<path d="M45,15c-2.8,0-5.3,0.8-7.6,2.1c1.3,1.1,2.1,2.7,2.1,4.5c0,3.2-2.6,5.8-5.8,5.8c-1.2,0-2.4-0.4-3.3-1
		C30.2,27.5,30,28.7,30,30c0,8.3,6.7,15,15,15s15-6.7,15-15C60,21.7,53.3,15,45,15z"/>
</g>
<g id="Layer_5">
	<line class="st1" x1="5" y1="55" x2="85" y2="5"/>
	<path class="st0" d="M85,30c0,0-17.9,25-40,25S5,30,5,30S22.9,5,45,5S85,30,85,30z"/>
</g>
</svg>
